# xmcd
#
# Track frame offsets:
#	150
#	24352
#	38178
#	50088
#	69178
#	84973
#	95265
#	109281
#	121541
#	134174
#	153052
#	169634
#	190066
#	204025
#	215806
#	230353
#	243387
#	253115
#
# Disc length: 3600
#
# Revision: 1
# Processed by: cddbd v1.5.1PL0 Copyright (c) Steve Scherf et al.
# Submitted via: VisiTrax 2.9.3.171 - For more info visit www.synapsa.com
# Normalized: r0:DSETVAR1
#
DISCID=e80e0e12
DTITLE=Various Artist - The Drive Collection - Blues Hits
DYEAR=2001
DGENRE=Blues
TTITLE0=Muddy Waters - Mannish Boy
TTITLE1=Etta James - I Just Wanna Make Love To You
TTITLE2=John Lee Hooker - Boom Boom
TTITLE3=Robert Cray Band - Right Next Door
TTITLE4=John Mayall and The Bluesbreakers - Oh Pretty Woman
TTITLE5=Buddy Guy - Stone Crazy
TTITLE6=Sonny Boy Williamson - Help Me
TTITLE7=Little Walter - Last Night
TTITLE8=Howlin'Wolf - Back Door Man
TTITLE9=Livin'Blues - L.B.Boogie
TTITLE10=Cuby and The Blizzards - Down The Road
TTITLE11=Muddy Waters and Buddy Guy - Wee, Wee Baby
TTITLE12=John Mayall and The Bluesbreakers - Ramblin'On My Mind
TTITLE13=Little Milton - We're Gonna Make It
TTITLE14=Bobby Bland - Stormy Monday Blues
TTITLE15=Elmore James - Dust My Room
TTITLE16=John Lee Hooker - Dimples
TTITLE17=Robert Cray Band - Don't Be Afraid Of The Dark
EXTD=
EXTT0=
EXTT1=
EXTT2=
EXTT3=
EXTT4=
EXTT5=
EXTT6=
EXTT7=
EXTT8=
EXTT9=
EXTT10=
EXTT11=
EXTT12=
EXTT13=
EXTT14=
EXTT15=
EXTT16=
EXTT17=
PLAYORDER=
